<svg width="562" height="630" viewBox="0 0 562 630" fill="none" xmlns="http://www.w3.org/2000/svg">
<g id="Group 1">
<path id="Star 1" d="M54.5 0L59.3271 14.8561H74.9477L62.3103 24.0377L67.1374 38.8939L54.5 29.7123L41.8626 38.8939L46.6897 24.0377L34.0523 14.8561H49.6729L54.5 0Z" fill="black"/>
<path id="Star 2" d="M530.5 160L537.572 181.766H560.458L541.943 195.218L549.015 216.984L530.5 203.532L511.985 216.984L519.057 195.218L500.542 181.766H523.428L530.5 160Z" fill="black"/>
<path id="Star 5" d="M488.5 521L493.103 535.165H507.997L495.947 543.92L500.55 558.085L488.5 549.33L476.45 558.085L481.053 543.92L469.003 535.165H483.897L488.5 521Z" fill="black"/>
<path id="Star 3" d="M98.5 244L105.572 265.766H128.458L109.943 279.218L117.015 300.984L98.5 287.532L79.9848 300.984L87.057 279.218L68.5417 265.766H91.4278L98.5 244Z" fill="black"/>
<path id="Star 4" d="M16.5 465L20.2045 476.401H32.1924L22.494 483.448L26.1985 494.849L16.5 487.802L6.80154 494.849L10.506 483.448L0.807568 476.401H12.7955L16.5 465Z" fill="black"/>
<circle id="Ellipse 1" cx="386.5" cy="335.5" r="14.5" fill="black"/>
<circle id="Ellipse 2" cx="283" cy="48" r="18" fill="white"/>
<circle id="Ellipse 3" cx="283" cy="48" r="18" fill="white"/>
<circle id="Ellipse 5" cx="475.5" cy="73.5" r="7.5" fill="white"/>
<circle id="Ellipse 4" cx="209" cy="618" r="12" fill="white"/>
</g>
</svg>
